<svg xmlns="http://www.w3.org/2000/svg" viewBox="166 269 693 803" width="693" height="803">
  <title>Szlaki Pienin — znak SP</title>
  <g fill="#F5F0E3">
    <path d="M195.6 579.8H297.52Q299.76 601.64 312.64 613.1199999999999Q325.52 624.5999999999999 346.24 624.5999999999999Q367.52 624.5999999999999 379.84 614.8Q392.15999999999997 605.0 392.15999999999997 587.64Q392.15999999999997 573.0799999999999 382.36 563.56Q372.56 554.04 358.28 547.88Q344.0 541.72 317.68 533.88Q279.6 522.1199999999999 255.52 510.3599999999999Q231.44 498.59999999999997 214.07999999999998 475.64Q196.71999999999997 452.67999999999995 196.71999999999997 415.71999999999997Q196.71999999999997 360.8399999999999 236.48 329.75999999999993Q276.24 298.67999999999995 340.08000000000004 298.67999999999995Q405.04 298.67999999999995 444.8 329.75999999999993Q484.56 360.8399999999999 487.36 416.28H383.76Q382.64 397.23999999999995 369.76 386.31999999999994Q356.88 375.3999999999999 336.72 375.3999999999999Q319.36 375.3999999999999 308.72 384.63999999999993Q298.08 393.87999999999994 298.08 411.23999999999995Q298.08 430.28 316.0 440.91999999999996Q333.91999999999996 451.55999999999995 372.0 463.88Q410.08000000000004 476.76 433.88 488.52Q457.68 500.28 475.04 522.68Q492.40000000000003 545.0799999999999 492.40000000000003 580.36Q492.40000000000003 613.9599999999999 475.32000000000005 641.3999999999999Q458.24 668.8399999999999 425.76 685.0799999999999Q393.28 701.3199999999999 349.03999999999996 701.3199999999999Q305.91999999999996 701.3199999999999 271.76 687.3199999999999Q237.6 673.3199999999999 217.15999999999997 645.8799999999999Q196.71999999999997 618.4399999999999 195.6 579.8Z"/>
    <path d="M683.9200000000001 556.28H624.56V697.4H528.8V304.2799999999999H683.9200000000001Q730.96 304.2799999999999 763.44 320.5199999999999Q795.9200000000001 336.75999999999993 812.1600000000001 365.31999999999994Q828.4000000000001 393.87999999999994 828.4000000000001 430.84Q828.4000000000001 464.99999999999994 812.72 493.28Q797.04 521.56 764.56 538.92Q732.08 556.28 683.9200000000001 556.28ZM730.96 430.84Q730.96 407.31999999999994 717.52 394.43999999999994Q704.08 381.55999999999995 676.64 381.55999999999995H624.56V480.11999999999995H676.64Q704.08 480.11999999999995 717.52 467.23999999999995Q730.96 454.35999999999996 730.96 430.84Z"/>
  </g>
  <path d="M150 812 C 330 776, 450 838, 620 806 M620 806 C 760 780, 820 800, 874 792" fill="none" stroke="#7CC0EA" stroke-width="40" stroke-linecap="round"/>
</svg>
